
<svg width="477px" height="438px" viewBox="0 0 477 438" version="1.1" xmlns="http://www.w3.org/2000/svg" xmlns:xlink="http://www.w3.org/1999/xlink">
    <defs>
        <linearGradient x1="50%" y1="45.4830317%" x2="81.253999%" y2="52.5965889%" id="linearGradient-1">
            <stop stop-color="#89F2C7" offset="0%"></stop>
            <stop stop-color="#7FD4AC" offset="100%"></stop>
        </linearGradient>
        <linearGradient x1="-2.78694417%" y1="48.0750612%" x2="43.4173672%" y2="50.7273064%" id="linearGradient-2">
            <stop stop-color="#FFFEA4" offset="0%"></stop>
            <stop stop-color="#BBED6C" offset="100%"></stop>
        </linearGradient>
        <linearGradient x1="71.4370246%" y1="137.489576%" x2="71.4370246%" y2="13.1131491%" id="linearGradient-3">
            <stop stop-color="#A634C9" offset="0%"></stop>
            <stop stop-color="#F35F83" offset="100%"></stop>
        </linearGradient>
        <linearGradient x1="82.7976497%" y1="67.1161898%" x2="37.5441903%" y2="63.6475994%" id="linearGradient-4">
            <stop stop-color="#711787" offset="0%"></stop>
            <stop stop-color="#0058AF" offset="100%"></stop>
        </linearGradient>
        <linearGradient x1="54.7829267%" y1="-62.6297468%" x2="43.4029708%" y2="41.4052937%" id="linearGradient-5">
            <stop stop-color="#E18C57" offset="0%"></stop>
            <stop stop-color="#7F4A70" offset="100%"></stop>
        </linearGradient>
        <linearGradient x1="134.512826%" y1="67.1161898%" x2="17.9039296%" y2="63.6475994%" id="linearGradient-6">
            <stop stop-color="#711787" offset="0%"></stop>
            <stop stop-color="#0058AF" offset="100%"></stop>
        </linearGradient>
        <linearGradient x1="22.1340565%" y1="-5.79925456%" x2="77.8659435%" y2="82.2633839%" id="linearGradient-7">
            <stop stop-color="#A3AFFF" offset="0%"></stop>
            <stop stop-color="#0683FF" offset="100%"></stop>
        </linearGradient>
        <linearGradient x1="50%" y1="37.4439674%" x2="69.5384892%" y2="62.5560326%" id="linearGradient-8">
            <stop stop-color="#6B3C5D" offset="0%"></stop>
            <stop stop-color="#372732" offset="100%"></stop>
        </linearGradient>
        <linearGradient x1="50%" y1="37.1499775%" x2="69.5384892%" y2="62.8500225%" id="linearGradient-9">
            <stop stop-color="#6B3C5D" offset="0%"></stop>
            <stop stop-color="#372732" offset="100%"></stop>
        </linearGradient>
        <linearGradient x1="60.7472529%" y1="-62.6297468%" x2="35.1764524%" y2="41.4052937%" id="linearGradient-10">
            <stop stop-color="#E18C57" offset="0%"></stop>
            <stop stop-color="#915F83" offset="100%"></stop>
        </linearGradient>
        <linearGradient x1="55.9060861%" y1="-62.6297468%" x2="41.8538115%" y2="41.4052937%" id="linearGradient-11">
            <stop stop-color="#E18C57" offset="0%"></stop>
            <stop stop-color="#915F83" offset="100%"></stop>
        </linearGradient>
        <linearGradient x1="124.857144%" y1="63.6475994%" x2="17.0460345%" y2="63.6475994%" id="linearGradient-12">
            <stop stop-color="#711787" offset="0%"></stop>
            <stop stop-color="#0058AF" offset="100%"></stop>
        </linearGradient>
        <linearGradient x1="-65.5957285%" y1="24.6026765%" x2="197.664043%" y2="79.1405269%" id="linearGradient-13">
            <stop stop-color="#85C0F8" offset="0%"></stop>
            <stop stop-color="#0058AF" offset="100%"></stop>
        </linearGradient>
        <linearGradient x1="136.771767%" y1="62.5494314%" x2="17.0460345%" y2="60.006293%" id="linearGradient-14">
            <stop stop-color="#711787" offset="0%"></stop>
            <stop stop-color="#0058AF" offset="100%"></stop>
        </linearGradient>
        <linearGradient x1="80.1038352%" y1="43.3252509%" x2="-11.8565156%" y2="55.2114981%" id="linearGradient-15">
            <stop stop-color="#B7E0FE" offset="0%"></stop>
            <stop stop-color="#D0FBFF" offset="100%"></stop>
        </linearGradient>
        <linearGradient x1="80.1038352%" y1="47.2390042%" x2="-11.8565156%" y2="52.1557252%" id="linearGradient-16">
            <stop stop-color="#B7E0FE" offset="0%"></stop>
            <stop stop-color="#D0FBFF" offset="100%"></stop>
        </linearGradient>
    </defs>
    <g id="Page-1" stroke="none" stroke-width="1" fill="none" fill-rule="evenodd">
        <g id="Sports" transform="translate(-1913.000000, -2056.000000)">
            <g id="Golf" transform="translate(1900.000000, 2018.000000)">
                <polygon id="Rectangle" points="0 0 500 0 500 500 0 500"></polygon>
                <g id="Group-4" transform="translate(13.000000, 38.000000)">
                    <g id="Group-3" transform="translate(0.000000, 312.813124)">
                        <path d="M212.911764,114.709865 C294.270927,74.6611316 364.653778,54.6367649 424.060319,54.6367649 C439.16616,54.6367649 454.31629,55.6956782 466.594247,58.5041187 L467.487466,58.7127467 L467.487466,58.7127467 C472.784866,59.976059 476.522714,64.7101107 476.522714,70.1560641 L476.522714,114.709865 L212.911764,114.709865 Z" id="Path-794" fill="url(#linearGradient-1)"></path>
                        <polygon id="Path" fill-opacity="0.0867296766" fill="#000000" points="343.69796 70.6340555 476.52196 90.7050555 476.52196 110.635055 343.69796 110.635381"></polygon>
                        <path d="M17.1353344,50.1096098 C46.3899456,37.7931204 91.1645406,31.6348757 151.45912,31.6348757 C247.040584,31.6348757 353.448865,56.4152886 470.683963,105.976114 C475.770927,108.126614 478.1514,113.993738 476.0009,119.080701 C474.436282,122.781771 470.808341,125.186876 466.790139,125.186876 L28,125.186876 C12.536027,125.186876 8.52651283e-14,112.650849 8.52651283e-14,97.1868757 L8.52651283e-14,75.915792 C8.52651283e-14,64.6498086 6.75204798,54.4810792 17.1353344,50.1096098 Z" id="Rectangle" fill="url(#linearGradient-2)"></path>
                        <path d="M429.118834,54.6367649 L429.118834,0.5 C429.118834,0.223857625 428.894977,2.27373675e-13 428.618834,2.27373675e-13 C428.342692,2.27373675e-13 428.118834,0.223857625 428.118834,0.5 L428.118834,54.6367649 L429.118834,54.6367649 Z" id="Path" fill="#161E37" fill-rule="nonzero"></path>
                        <path d="M428.618834,-4.35207426e-14 C425.181649,3.06549832 421.73188,4.41179041 418.269526,4.03887626 C413.075995,3.47950504 411.341714,2.53532482 407.430574,3.68470421 C404.823147,4.45095713 402.701445,5.67010686 401.065467,7.34215339 C407.965006,7.78936306 412.557234,8.68468855 414.84215,10.0281299 C417.127067,11.3715712 421.719295,10.8753329 428.618834,8.53941496 L428.618834,-4.35207426e-14 Z" id="Path-818" fill="url(#linearGradient-3)"></path>
                    </g>
                    <ellipse id="Oval" fill-opacity="0.0867296766" fill="#000000" cx="162.5" cy="385" rx="63.5" ry="14"></ellipse>
                    <g id="Group" transform="translate(20.000000, 97.000000)">
                        <path d="M137.073364,123.175295 C130.33527,137.385289 125.565866,151.506085 122.765152,165.537685 C119.964439,179.569284 117.453439,192.852455 115.232152,205.387196 L84.1530483,277.711315 L98.4883228,277.711315 L133.570598,214.142556 L154.273873,167.329823 L160.058677,223.223418 L166.49184,277.470961 L179.161417,277.470961 C178.440962,203.955679 177.508367,162.068229 176.363634,151.808612 C175.218901,141.548994 173.636659,132.004555 171.616909,123.175295 L137.073364,123.175295 Z" id="Path-799" fill="url(#linearGradient-4)"></path>
                        <path d="M172.156784,125.600459 C172.810758,128.620285 173.415027,131.721362 173.96959,134.903692 L135.32836,126.972353 L172.156784,125.600459 Z" id="Path" fill-opacity="0.395241477" fill="#000000"></path>
                        <path d="M152.448649,60.3028607 L157.40952,73.5524509 L159.587951,72.5333133 C171.61799,66.8753505 178.303138,63.2089367 179.643395,61.534072 C181.062491,59.7606859 183.62306,45.176138 187.325103,17.7804284 L191.767147,12.740189 C192.250046,12.1922604 192.516476,11.4869904 192.516476,10.7566366 L192.516476,8.18529165 C192.516476,6.553562 191.193698,5.23078377 189.561968,5.23078377 C189.340786,5.23078377 189.120302,5.25562107 188.904663,5.30482882 L185.139515,6.16401473 C184.000699,6.42388612 183.11627,7.32114161 182.872821,8.46358048 L181.143395,16.5792949 L167.622044,53.265468 L152.448649,60.3028607 Z" id="Path-804" fill="url(#linearGradient-5)"></path>
                        <polygon id="Path-809" fill="url(#linearGradient-6)" points="175.038014 65.6185901 165.928844 50.4588242 149.391915 57.0711426 157.287908 76.4454098"></polygon>
                        <polygon id="Path" fill-opacity="0.395241477" fill="#000000" points="173.662696 63.3298242 175.038014 65.6185901 163.057696 72.9258242 162.716696 73.0081745"></polygon>
                        <path d="M174.971059,127.367011 C159.881617,128.630745 146.052865,128.427018 133.484806,126.755829 C131.593768,126.504375 131.084604,123.739449 133.484806,121.850537 C135.885007,119.961624 126.571427,93.7774965 120.384758,83.275109 C114.198089,72.7727215 113.940782,58.6720459 126.883254,55.2898229 C139.825726,51.9075998 148.511093,48.6855673 152.287587,49.7548281 C156.064082,50.824089 165.169423,69.2373053 169.202444,89.5114284 C171.891125,103.02751 173.813997,115.646038 174.971059,127.367011 Z" id="Path-800" fill="url(#linearGradient-7)"></path>
                        <path d="M153.286187,50.5462 L156.812111,54.424469 L168.244461,54.424469 L170.44529,57.9222959 L155.124473,71.0831949 C143.921656,76.6580048 135.235887,79.4454098 129.067165,79.4454098 C119.814082,79.4454098 115.445967,61.9512087 124.5516,58.2092988 C130.622022,55.7146923 140.200218,53.160326 153.286187,50.5462 Z" id="Path-808" fill-opacity="0.395241477" fill="#000000"></path>
                        <path d="M84.1530483,277.711315 L98.5158704,277.711315 L99.4621928,278.36556 C102.571307,280.544873 104.125864,281.957473 104.125864,282.603361 L104.125864,287.191398 L104.125864,287.191398 C104.125864,287.743683 103.678148,288.191398 103.125864,288.191398 L84.2125174,288.191398 C83.6602326,288.191398 83.2125174,287.743683 83.2125174,287.191398 L83.2137523,287.141716 L83.2137523,287.141716 L84.1530483,277.711315 Z" id="Path-801" fill="url(#linearGradient-8)"></path>
                        <path d="M166.49184,277.470961 L160.749462,280.53364 C159.066081,281.431466 158.014574,283.183999 158.014574,285.091841 C158.014574,286.803679 159.402293,288.191398 161.114131,288.191398 L179.161417,288.191398 L179.161417,277.470961 L166.49184,277.470961 Z" id="Path-802" fill="url(#linearGradient-9)"></path>
                        <path d="M204.619215,0.426778211 L204.571946,0.445092535 L204.571946,0.445092535 L162.49422,19.0371269 L158.843451,21.147001 L4.77015832,91.3017546 C3.3160676,91.963851 2.64494565,93.6416746 3.21436013,95.1128253 L3.28275674,95.2753739 L159.918746,23.9537155 L163.704917,22.5020516 L205.736385,3.73916982 C206.631449,3.33961256 207.063046,2.31419179 206.723112,1.39482754 C206.409457,0.546533059 205.46751,0.11312261 204.619215,0.426778211 Z" id="Path" fill="#D3D3D3" fill-rule="nonzero"></path>
                        <path d="M204.619215,0.426778211 C205.46751,0.11312261 206.409457,0.546533059 206.723112,1.39482754 C207.045154,2.2658042 206.674743,3.23196731 205.873814,3.67098746 L205.736385,3.73916982 L164.51587,22.1397013 L163.07387,18.7807013 L204.571946,0.445092535 L204.571946,0.445092535 L204.619215,0.426778211 Z" id="Path" fill="#414141" fill-rule="nonzero"></path>
                        <path d="M125.978301,56.7444829 L134.391923,72.7727215 L143.854169,68.2273025 C157.611753,61.5964442 165.314884,57.7688377 166.96356,56.7444829 C168.958256,55.5051401 174.307346,41.5568264 183.010832,14.8995419 L186.010832,6.85874895 L186.664055,6.27066295 C187.225304,5.76537989 187.323395,4.92163597 186.893034,4.30107131 L186.560618,3.82174096 C186.225736,3.33885383 185.639724,3.09599007 185.061435,3.20042747 L177.39434,4.58508267 C175.0185,5.01415248 173.41754,7.23527361 173.732898,9.60386156 L173.76761,9.82355446 L173.76761,9.82355446 L174.971059,16.399273 L172.91302,20.3671927 C164.357969,36.7846791 159.211582,45.6436588 157.473859,46.9441318 L157.339486,47.0381862 C155.140447,48.4886682 144.686719,51.7241004 125.978301,56.7444829 Z" id="Path-803" fill="url(#linearGradient-10)"></path>
                        <g id="Group-2" transform="translate(119.000000, 16.000000)">
                            <path d="M2.30004745,22.8757748 C2.69971093,24.6258058 4.27561361,25.5078034 7.02775549,25.5217675 C8.74621263,27.3197787 9.76741723,29.2248087 10.0913693,31.2368572 C10.4153213,33.2489058 9.87360322,37.2366201 8.46621496,43.2 L21.6635261,40.1104838 L19.6729681,29.9831274 C23.2698494,29.2394482 25.2704897,27.6063137 25.6748891,25.0837239 C26.0792885,22.561134 25.5600508,16.2444913 24.1171759,6.13379562 L1.65204745,9.70479632 L4.59227337,18.941693 C2.66445927,19.8143831 1.90038396,21.1257437 2.30004745,22.8757748 Z" id="Path-805" fill="url(#linearGradient-11)"></path>
                            <path d="M21.6123731,6.53279562 L24.1740695,6.53387953 L24.4834383,8.76506786 C24.51601,9.00557315 24.5479809,9.24361025 24.5793509,9.47917918 L11.7626587,17.8705663 L3.39537308,19.6537425 C3.6598292,19.443237 3.96805916,19.249232 4.32006294,19.0717275 L4.59227337,18.941693 L3.54737308,15.6607956 L17.4643731,7.19179562 L21.6123731,6.53279562 Z" id="Path" fill-opacity="0.395241477" fill="#000000"></path>
                            <path d="M3.13969692,19.7089962 C4.59522359,19.1124735 5.63253626,18.7593755 6.25163495,18.6497022 C9.45908752,18.081502 11.3096628,18.1770252 11.7626587,17.8705663 C12.638885,17.2777852 12.8048127,10.3165055 18.1680787,8.45497212 C21.7435894,7.21394989 23.9159448,7.53210015 24.6851448,9.4094229 C25.341535,7.73691492 25.4511791,6.64503916 25.0140769,6.13379562 C24.5769746,5.62255207 23.541807,5.31501849 21.9085738,5.21119486 C19.5071191,1.19691827 16.1251474,-0.498156536 11.7626587,0.125970435 C5.21892559,1.06216089 1.62127508,4.24122617 0.314102715,8.45497212 C-0.557345527,11.2641361 0.384519209,15.0154775 3.13969692,19.7089962 Z" id="Path-806" fill="url(#linearGradient-12)"></path>
                            <path d="M21.8346392,5.09140821 L21.9085738,5.21119486 C23.541807,5.31501849 24.5769746,5.62255207 25.0140769,6.13379562 C25.4511791,6.64503916 25.341535,7.73691492 24.6851448,9.4094229 C23.9159448,7.53210015 21.7435894,7.21394989 18.1680787,8.45497212 C12.8048127,10.3165055 12.638885,17.2777852 11.7626587,17.8705663 C11.3079492,18.1781845 9.4712274,18.4378776 6.25249319,18.6496457 C6.8092732,12.5371471 9.30227495,8.68667918 13.7298656,7.09770244 C16.3656011,6.15178791 19.0671923,5.48302316 21.8346392,5.09140821 Z" id="Path" fill="url(#linearGradient-13)"></path>
                            <polygon id="Path-7" fill-opacity="0.395241477" fill="#000000" points="19.6729681 29.9831274 15.4110432 42.6742797 21.6635261 40.1104838"></polygon>
                        </g>
                        <path d="M151.286187,49.5462 L151.286187,67.6550347 C141.308894,74.8486181 133.235887,78.4454098 127.067165,78.4454098 C117.814082,78.4454098 113.445967,60.9512087 122.5516,57.2092988 C128.622022,54.7146923 138.200218,52.160326 151.286187,49.5462 Z" id="Path-808" fill="url(#linearGradient-14)"></path>
                        <path d="M3.66131345,92.4101603 C-0.231112753,105.509949 -0.231112753,111.326467 3.66131345,109.859713 C5.07173659,109.328234 7.17328427,108.414049 7.81564019,106.63658 C8.56923406,104.551305 8.15198375,99.4140383 6.56388926,91.2247811 L3.66131345,92.4101603 Z" id="Path-811" fill="#D3D3D3" fill-rule="nonzero"></path>
                        <polygon id="Path-8" fill-opacity="0.395241477" fill="#000000" points="154.273873 167.329823 160.9138 156.861764 157.05557 191.674173"></polygon>
                    </g>
                    <path d="M246.641828,37.9258388 L343.223429,37.9258388 C349.403635,37.9258388 354.413682,32.9157825 354.413682,26.7355763 C354.413682,21.2026798 350.373976,16.5167107 344.934864,15.6769153 L344.64216,15.6356228 L344.64216,15.6356228 C335.150299,14.4224292 327.775444,15.9433721 322.517595,20.1984513 C317.575708,6.7328171 308.402979,1.63424829e-13 294.999408,1.63424829e-13 C281.595836,1.63424829e-13 271.519736,5.21187425 264.771109,15.6356228 C256.172449,14.0028749 248.45583,15.4290505 241.621251,19.9141496 L241.195239,20.1984513 L241.195239,20.1984513 C236.762049,23.2065196 235.60676,29.238851 238.614828,33.6720406 C240.420154,36.3326688 243.42653,37.9258388 246.641828,37.9258388 Z" id="Path-812" fill="url(#linearGradient-15)" fill-rule="nonzero"></path>
                    <path d="M141.356987,73.9258388 L44.7753863,73.9258388 C38.5951802,73.9258388 33.5851332,68.9157825 33.5851332,62.7355763 C33.5851332,57.2026798 37.624839,52.5167107 43.0639511,51.6769153 L43.3566558,51.6356228 L43.3566558,51.6356228 C52.8485159,50.4224292 60.2233709,51.9433721 65.4812206,56.1984513 C70.4231069,42.7328171 79.595836,36 92.9994077,36 C106.402979,36 116.479079,41.2118743 123.227706,51.6356228 C131.826366,50.0028749 139.542985,51.4290505 146.377564,55.9141496 L146.803577,56.1984513 L146.803577,56.1984513 C151.236766,59.2065196 152.392056,65.238851 149.383987,69.6720406 C147.578662,72.3326688 144.572286,73.9258388 141.356987,73.9258388 Z" id="Path-812" fill="url(#linearGradient-15)" fill-rule="nonzero"></path>
                    <path d="M452.964,145.678369 L260.240953,145.749848 C256.927243,145.751079 254.238725,143.065783 254.238725,139.752073 C254.238725,138.288661 254.772491,136.875502 255.741104,135.778523 C270.188146,119.416891 284.947556,111.496301 300.019334,112.016754 C311.456297,112.411691 325.187779,117.534647 341.21378,127.38562 C358.054859,111.289199 378.525573,103.240988 402.625923,103.240988 C423.868901,103.240988 442.279233,114.230277 457.85692,136.208854 C459.773079,138.912369 459.134804,142.657355 456.43129,144.573515 C455.417773,145.291863 454.206271,145.677908 452.964,145.678369 Z" id="Path-816" fill="url(#linearGradient-16)" fill-rule="nonzero"></path>
                </g>
            </g>
        </g>
    </g>
</svg>