<?xml version="1.0" encoding="iso-8859-1"?>
<!-- Generator: Adobe Illustrator 19.0.0, SVG Export Plug-In . SVG Version: 6.00 Build 0)  -->
<svg xmlns="http://www.w3.org/2000/svg" xmlns:xlink="http://www.w3.org/1999/xlink" version="1.1" id="Capa_1" x="0px" y="0px" viewBox="0 0 455 455" style="enable-background:new 0 0 455 455;" xml:space="preserve" width="512" height="512">
<g>
	<polygon style="fill:#F2EBD9;" points="246.832,205.02 208.172,205.02 208.152,277.41 246.852,277.41  "/>
	<path style="fill:#FFCC75;" d="M246.852,267.41c26.72,8.27,46.15,33.16,46.15,62.59L227.5,350l-65.498-20   c0-29.43,19.43-54.32,46.15-62.59H246.852z"/>
	<path style="fill:#FFCC75;" d="M305.173,159.159H149.827c-26.671,0-51.535-14.829-70.011-41.756   C61.933,91.34,52.084,56.798,52.084,20.14v-7.5h49.223l1.795,10.809c2.33,14.025,16.309,25.875,30.527,25.875h187.743   c14.218,0,28.197-11.849,30.527-25.875l1.794-10.808h49.223v7.5c0,36.658-9.849,71.201-27.732,97.264   C356.708,144.33,331.844,159.159,305.173,159.159z M67.233,27.64c2.595,64.908,38.648,116.52,82.594,116.52h155.346   c43.945,0,79.999-51.612,82.594-116.52h-21.398c-4.307,20.383-24.112,36.683-44.997,36.683H133.628   c-20.885,0-40.69-16.301-44.997-36.683H67.233z M149.822,151.66l-15.76-94.91L124.642,0h205.72l-9.43,56.75l-15.76,94.91   c-5.14,30.94-28.3,55.78-58.34,63.36c-6.18,1.56-12.66,2.39-19.33,2.39s-13.15-0.83-19.33-2.39   C178.132,207.44,154.962,182.6,149.822,151.66z"/>
	<rect x="129.072" y="330" style="fill:#FF6E1D;" width="196.86" height="125"/>
	<rect x="159.072" y="360" style="fill:#F2EBD9;" width="136.86" height="65"/>
</g>















</svg>
