<?xml version="1.0" encoding="utf-8"?>
<!-- Generator: Adobe Illustrator 18.0.0, SVG Export Plug-In . SVG Version: 6.00 Build 0)  -->
<!DOCTYPE svg PUBLIC "-//W3C//DTD SVG 1.1//EN" "http://www.w3.org/Graphics/SVG/1.1/DTD/svg11.dtd">
<svg version="1.1" id="Layer_1" xmlns="http://www.w3.org/2000/svg" xmlns:xlink="http://www.w3.org/1999/xlink" x="0px" y="0px"
	 viewBox="0 0 48 48" enable-background="new 0 0 48 48" xml:space="preserve">
<g>
	<g>
		<g>
			<path fill="#CDD6E0" d="M31.2,0.5c-1.4-1.1-6.6-0.1-9.3,0.5c-1,0.2-1.8,1.1-1.8,2.1l-1.9,32.1c0,0.5,0.3,0.9,0.8,0.9h0
				c0.5,0,0.9-0.3,0.9-0.8l1.7-28.9C24,7.3,29.2,8.9,30.8,8C32.7,6.9,33,1.8,31.2,0.5z"/>
		</g>
		<g>
			<path fill="#40596B" d="M20.4,26.5l-0.5,8.8c0,0.5-0.4,0.8-0.9,0.8c-0.5,0-0.8-0.4-0.8-0.9l0.5-8.8L20.4,26.5z"/>
		</g>
		<g>
			<g>
				<g>
					<path fill="#F2F2F2" d="M29.7,4.8l-6.2-0.4c-0.3,0-0.6,0.2-0.6,0.6c0,0.3,0.2,0.6,0.6,0.6l6.2,0.4c0.3,0,0.6-0.2,0.6-0.6
						C30.3,5,30,4.8,29.7,4.8z"/>
				</g>
			</g>
			<g>
				<g>
					<path fill="#F2F2F2" d="M29.9,2.4L23.7,2c-0.3,0-0.6,0.2-0.6,0.6c0,0.3,0.2,0.6,0.6,0.6l6.2,0.4c0.3,0,0.6-0.2,0.6-0.6
						C30.4,2.7,30.2,2.4,29.9,2.4z"/>
				</g>
			</g>
		</g>
	</g>
	<path fill="none" stroke="#334A5E" stroke-width="1.5" stroke-miterlimit="10" d="M20.2,32.5c0.7,5.6-1.5,10.2-4.8,10.2
		s-6.5-4.5-7.2-10.2C7.5,26.9,9.7,22.3,13,22.3S19.5,26.9,20.2,32.5z"/>
	<g>
		<g>
			<path fill="#F2F2F2" d="M4.7,7.5c1.1-1.4,6.4-1.8,9.2-1.9c1,0,2,0.6,2.3,1.6l9.8,30.6c0.1,0.4-0.1,0.9-0.5,1.1l0,0
				c-0.4,0.1-0.9-0.1-1.1-0.5l-8.8-27.6c-2.2,1.5-6.7,4.4-8.5,3.9C4.8,14.1,3.3,9.2,4.7,7.5z"/>
		</g>
		<g>
			<path fill="#40596B" d="M21.6,30l2.7,8.4c0.1,0.4,0.6,0.7,1.1,0.5c0.4-0.1,0.7-0.6,0.5-1.1l-2.7-8.4L21.6,30z"/>
		</g>
		<g>
			<g>
				<g>
					<path fill="#CDD6E0" d="M7.2,11.3l5.9-1.9c0.3-0.1,0.6,0.1,0.7,0.4c0.1,0.3-0.1,0.6-0.4,0.7l-5.9,1.9c-0.3,0.1-0.6-0.1-0.7-0.4
						S6.9,11.4,7.2,11.3z"/>
				</g>
			</g>
			<g>
				<g>
					<path fill="#CDD6E0" d="M6.5,9.1l5.9-1.9c0.3-0.1,0.6,0.1,0.7,0.4c0.1,0.3-0.1,0.6-0.4,0.7l-5.9,1.9c-0.3,0.1-0.6-0.1-0.7-0.4
						S6.2,9.2,6.5,9.1z"/>
				</g>
			</g>
		</g>
	</g>
	<g>
		<g>
			<path fill="#F2F2F2" d="M43.2,8.3C42,7,36.8,7,34,7c-1,0-1.9,0.7-2.2,1.7l-7.9,31.2c-0.1,0.5,0.2,0.9,0.6,1h0
				c0.5,0.1,0.9-0.2,1-0.6l7.1-28.1c2.3,1.3,7,3.9,8.8,3.3C43.4,14.9,44.7,9.9,43.2,8.3z"/>
		</g>
		<g>
			<path fill="#40596B" d="M27.7,31.8l-2.2,8.6c-0.1,0.5-0.6,0.7-1,0.6c-0.5-0.1-0.7-0.6-0.6-1l2.2-8.6L27.7,31.8z"/>
		</g>
		<g>
			<g>
				<g>
					<path fill="#CDD6E0" d="M40.9,12.2l-6-1.5c-0.3-0.1-0.6,0.1-0.7,0.4c-0.1,0.3,0.1,0.6,0.4,0.7l6,1.5c0.3,0.1,0.6-0.1,0.7-0.4
						C41.4,12.6,41.2,12.3,40.9,12.2z"/>
				</g>
			</g>
			<g>
				<g>
					<path fill="#CDD6E0" d="M41.5,10l-6-1.5c-0.3-0.1-0.6,0.1-0.7,0.4s0.1,0.6,0.4,0.7l6,1.5c0.3,0.1,0.6-0.1,0.7-0.4
						S41.8,10,41.5,10z"/>
				</g>
			</g>
		</g>
	</g>
	<path fill="#84DBFF" d="M14,20.9V46c0,1.1,0.9,2,2,2h14.7c1.1,0,2-0.9,2-2V20.9H14z"/>
	<path fill="#54C0EB" d="M34.1,19.4v-1.2c0-0.8-0.7-1.5-1.5-1.5H14c-0.8,0-1.5,0.7-1.5,1.5v1.2c0,0.8,0.7,1.5,1.5,1.5h18.6
		C33.5,20.9,34.1,20.2,34.1,19.4z"/>
	<g>
		<path fill="#54C0EB" d="M19.9,25.6c-0.8,0-1.5,0.7-1.5,1.5v16.8c0,0.8,0.7,1.5,1.5,1.5s1.5-0.7,1.5-1.5V27.1
			C21.4,26.3,20.7,25.6,19.9,25.6z"/>
		<path fill="#54C0EB" d="M26.8,25.6c-0.8,0-1.5,0.7-1.5,1.5v16.8c0,0.8,0.7,1.5,1.5,1.5s1.5-0.7,1.5-1.5V27.1
			C28.3,26.3,27.6,25.6,26.8,25.6z"/>
	</g>
</g>
</svg>
