<?xml version="1.0" encoding="iso-8859-1"?>
<!-- Generator: Adobe Illustrator 19.0.0, SVG Export Plug-In . SVG Version: 6.00 Build 0)  -->
<svg version="1.1" id="Capa_1" xmlns="http://www.w3.org/2000/svg" xmlns:xlink="http://www.w3.org/1999/xlink" x="0px" y="0px"
	 viewBox="0 0 512.001 512.001" style="enable-background:new 0 0 512.001 512.001;" xml:space="preserve">
<path style="fill:#E1E4FB;" d="M254.97,389.985c-32.995,0-59.993,27.998-59.993,60.993s26.998,60.993,59.993,60.993
	s59.993-27.998,59.993-60.993S287.965,389.985,254.97,389.985z"/>
<path style="fill:#C5C9F7;" d="M314.963,450.978c0,32.995-26.998,60.993-59.993,60.993V389.985
	C287.965,389.985,314.963,417.983,314.963,450.978z"/>
<path style="fill:#E1E4FB;" d="M235.997,318.456l-63.633,63.633c-18.666,18.666-44.119,27.999-68.935,26.513
	c-20.999-1.062-41.997-9.756-58.329-26.513l-31.816-31.816c-17.605-17.181-17.818-45.815,0-63.633
	c17.393-17.393,46.027-17.181,63.633,0l31.816,31.816c11.666,11.666,30.968,11.454,42.421,0l42.421-42.421l21.847,0.637
	l22.483,22.483L235.997,318.456z"/>
<path style="fill:#C5C9F7;" d="M276.005,318.456l63.633,63.633c18.666,18.666,44.119,27.999,68.935,26.513
	c20.999-1.062,41.997-9.756,58.329-26.513l31.816-31.816c17.605-17.181,17.818-45.815,0-63.633
	c-17.393-17.393-46.027-17.181-63.633,0l-31.816,31.816c-11.666,11.666-30.968,11.454-42.421,0l-42.421-42.421l-21.847,0.637
	l-22.483,22.483L276.005,318.456z"/>
<path style="fill:#063E8B;" d="M8.75,51.202l267.255,267.255l42.421-42.421L51.171,8.781C39.505-2.886,20.416-2.885,8.75,8.781
	S-2.917,39.535,8.75,51.202z"/>
<path style="fill:#8A93E6;" d="M276.005,318.456l63.633,63.633c18.666,18.666,44.119,27.999,68.935,26.513L286.61,286.64
	l-12.515,12.515L276.005,318.456z"/>
<path style="fill:#032E68;" d="M8.75,51.202l267.255,267.255l21.211-21.211L8.75,8.781C-2.915,20.446-2.917,39.535,8.75,51.202z"/>
<path style="fill:#0A4EAF;" d="M503.251,51.202L235.997,318.456l-42.421-42.421L460.829,8.781c11.667-11.667,30.755-11.666,42.421,0
	C514.917,20.446,514.918,39.535,503.251,51.202z"/>
<path style="fill:#C5C9F7;" d="M235.997,318.456l-63.633,63.633c-18.666,18.666-44.119,27.999-68.935,26.513L225.391,286.64
	l12.515,12.515L235.997,318.456z"/>
<path style="fill:#063E8B;" d="M503.251,51.202L235.997,318.456l-21.211-21.211L503.251,8.781
	C514.917,20.446,514.918,39.535,503.251,51.202z"/>
<g>
</g>
<g>
</g>
<g>
</g>
<g>
</g>
<g>
</g>
<g>
</g>
<g>
</g>
<g>
</g>
<g>
</g>
<g>
</g>
<g>
</g>
<g>
</g>
<g>
</g>
<g>
</g>
<g>
</g>
</svg>
