<svg id="Layer_3" enable-background="new 0 0 64 64" height="512" viewBox="0 0 64 64" width="512" xmlns="http://www.w3.org/2000/svg"><path d="m30.267 39.022-6.267 22.978-3-12-9 9 8-24" fill="#2b74ca"/><path d="m33.801 39.272 6.199 22.728 3-12 9 9-8-24" fill="#2b74ca"/><circle cx="32" cy="21" fill="#669e4f" r="19"/><path d="m13 21c0 5.968 2.757 11.287 7.06 14.771.964.135 1.94.229 2.94.229 11.598 0 21-9.402 21-21 0-3.92-1.094-7.576-2.964-10.717-2.687-1.455-5.765-2.283-9.036-2.283-10.493 0-19 8.507-19 19z" fill="#78b75b"/><circle cx="32" cy="21" fill="#a1cdfb" r="11"/><path d="m40 17.5c0-1.951-.542-3.771-1.469-5.336-1.828-1.354-4.082-2.164-6.531-2.164-6.075 0-11 4.925-11 11 0 1.148.177 2.255.503 3.295 1.926 2.264 4.792 3.705 7.997 3.705 5.799 0 10.5-4.701 10.5-10.5z" fill="#c7e2fc"/><g fill="#fff"><path d="m31 13h2v2h-2z"/><path d="m31 17h2v2h-2z"/><path d="m33 15h2v2h-2z"/><path d="m35 19h2v2h-2z"/><path d="m37 17h2v2h-2z"/><path d="m37 21h2v2h-2z"/><path d="m33 23h2v2h-2z"/><path d="m37 25h2v2h-2z"/><path d="m32 37v-2c7.72 0 14-6.28 14-14h2c0 8.822-7.178 16-16 16z"/><path d="m18 21h-2c0-8.822 7.178-16 16-16v2c-7.72 0-14 6.28-14 14z"/></g></svg>