<svg id="color" enable-background="new 0 0 24 24" height="512" viewBox="0 0 24 24" width="512" xmlns="http://www.w3.org/2000/svg"><path d="m5.75 17h-3.5c-.689 0-1.25.561-1.25 1.25v5c0 .414.336.75.75.75h4.5c.414 0 .75-.336.75-.75v-5c0-.689-.561-1.25-1.25-1.25z" fill="#90caf9"/><path d="m13.75 11h-3.5c-.689 0-1.25.561-1.25 1.25v11c0 .414.336.75.75.75h4.5c.414 0 .75-.336.75-.75v-11c0-.689-.561-1.25-1.25-1.25z" fill="#64b5f6"/><path d="m21.75 13h-3.5c-.689 0-1.25.561-1.25 1.25v9c0 .414.336.75.75.75h4.5c.414 0 .75-.336.75-.75v-9c0-.689-.561-1.25-1.25-1.25z" fill="#2196f3"/><path d="m4 17h-1.75c-.689 0-1.25.561-1.25 1.25v5c0 .414.336.75.75.75h2.25z" fill="#7db0d9"/><path d="m12 11h-1.75c-.689 0-1.25.561-1.25 1.25v11c0 .414.336.75.75.75h2.25z" fill="#579ed6"/><path d="m20 13h-1.75c-.689 0-1.25.561-1.25 1.25v9c0 .414.336.75.75.75h2.25z" fill="#1d83d4"/><path d="m23.25 24h-22.5c-.414 0-.75-.336-.75-.75s.336-.75.75-.75h22.5c.414 0 .75.336.75.75s-.336.75-.75.75z" fill="#607d8b"/><path d="m24 23.25h-24c0 .414.336.75.75.75h22.5c.414 0 .75-.336.75-.75z" fill="#546d79"/><path d="m3 11c-.275 0-.55-.113-.747-.335-.367-.413-.33-1.045.083-1.412l4.5-4c.214-.191.5-.28.784-.245l7.783.943 4.409-4.177c.401-.378 1.035-.363 1.413.039.38.401.363 1.034-.038 1.414l-4.75 4.5c-.216.205-.514.302-.808.267l-7.802-.947-4.163 3.701c-.19.168-.428.252-.664.252z" fill="#4caf50"/><path d="m21.25 6c-.195 0-.387-.076-.53-.22l-3.5-3.5c-.215-.214-.278-.537-.163-.817.116-.28.389-.463.693-.463h3.5c.414 0 .75.336.75.75v3.5c0 .303-.183.577-.463.693-.093.038-.19.057-.287.057z" fill="#4caf50"/><g fill="#429846"><path d="m18.849 3.909-3.349 3.091-7.775-.972c-.143-.018-.287.027-.394.123l-5.078 4.514.047.049c.192.189.446.286.7.286.236 0 .474-.083.664-.252l4.163-3.701 7.803.946c.04.005.08.007.119.007.254 0 .502-.097.688-.274l3.198-3.03z"/><path d="m21.771 1.211-2.923 2.698.787.787 1.085 1.084c.143.144.335.22.53.22.097 0 .194-.019.287-.057.28-.116.463-.39.463-.693v-3.5c0-.211-.088-.403-.229-.539z"/></g></svg>