<?xml version="1.0"?>
<svg xmlns="http://www.w3.org/2000/svg" xmlns:xlink="http://www.w3.org/1999/xlink" id="Layer_1" data-name="Layer 1" viewBox="0 0 128 128" width="512" height="512"><defs><linearGradient id="linear-gradient" x1="118.314" y1="118.314" x2="9.686" y2="9.686" gradientUnits="userSpaceOnUse"><stop offset="0" stop-color="#ffc043"/><stop offset="1" stop-color="#72bdf6"/></linearGradient></defs><title>SCORE BOARD</title><path d="M43.51,31.964c0-.735-.6-.96-2.175-1.32-2.175-.5-3.72-1.11-3.72-3.1,0-1.9,1.56-3.209,3.81-3.209a5.95,5.95,0,0,1,4.035,1.425L44.3,27.344a4.776,4.776,0,0,0-2.939-1.14c-.945,0-1.515.5-1.515,1.11,0,.75.614.99,2.2,1.35,2.221.5,3.69,1.155,3.69,3.06,0,1.965-1.485,3.27-4,3.27a6.62,6.62,0,0,1-4.575-1.71l1.275-1.515a5.087,5.087,0,0,0,3.39,1.35C42.94,33.119,43.51,32.609,43.51,31.964Zm9.646-5.625a3.208,3.208,0,0,1,2.4,1.155l1.605-1.44a5.488,5.488,0,0,0-9.479,3.6,5.489,5.489,0,0,0,5.475,5.34,5.576,5.576,0,0,0,4-1.725l-1.605-1.44a3.208,3.208,0,0,1-2.4,1.155,3.325,3.325,0,0,1,0-6.645ZM64.12,24.33a5.334,5.334,0,1,1-5.475,5.325A5.457,5.457,0,0,1,64.12,24.33Zm0,2.01a3.324,3.324,0,1,0,3.21,3.315A3.313,3.313,0,0,0,64.12,26.339Zm14.039,4.875,2.535,3.6h-2.52l-2.355-3.345H74.185v3.345H71.979v-10.3h4.635a3.573,3.573,0,0,1,3.886,3.48A3.354,3.354,0,0,1,78.159,31.214Zm.061-3.225c0-.885-.75-1.455-1.845-1.455h-2.19v2.91h2.19C77.47,29.444,78.22,28.874,78.22,27.989ZM90.835,26.5v-2H82.9v10.3h7.936v-2H85.12V30.554h5.175v-2H85.12V26.5ZM121.5,87.781a1.75,1.75,0,0,0-1.75,1.75v4.021a1.75,1.75,0,0,0,3.5,0V89.531A1.75,1.75,0,0,0,121.5,87.781Zm0-74.185H84.417a1.75,1.75,0,0,0,0,3.5H119.75V43.6H50.083a1.75,1.75,0,0,0,0,3.5H119.75V82.813a1.75,1.75,0,0,0,3.5,0V15.346A1.75,1.75,0,0,0,121.5,13.6Zm0,84.737a1.75,1.75,0,0,0-1.75,1.75V110.9H8.25V47.1H30.583a1.75,1.75,0,0,0,0-3.5H8.25V17.1H75.333a1.75,1.75,0,0,0,0-3.5H6.5a1.75,1.75,0,0,0-1.75,1.75v97.308A1.75,1.75,0,0,0,6.5,114.4h115a1.75,1.75,0,0,0,1.75-1.75v-12.57A1.75,1.75,0,0,0,121.5,98.333Zm-85-52.987a1.75,1.75,0,0,0,1.75,1.75h3.833a1.75,1.75,0,0,0,0-3.5H38.25A1.75,1.75,0,0,0,36.5,45.346ZM50.75,104.9V94.577H24.25V104.9h8.833a1.75,1.75,0,1,1,0,3.5H12.5a1.75,1.75,0,0,1-1.75-1.75V51.346A1.75,1.75,0,0,1,12.5,49.6h103a1.75,1.75,0,0,1,1.75,1.75v55.308a1.75,1.75,0,0,1-1.75,1.75H42.25a1.75,1.75,0,1,1,0-3.5Zm-30-10.327h-6.5V104.9h6.5Zm0-13.827h-6.5V91.077h6.5Zm0-13.827h-6.5V77.25h6.5Zm0-13.827h-6.5V63.423h6.5ZM101.5,63.423h12.25V53.1H101.5Zm0,13.827h12.25V66.923H101.5Zm0,13.827h12.25V80.75H101.5Zm0,13.827h12.25V94.577H101.5ZM85.75,63.423H98V53.1H85.75Zm0,13.827H98V66.923H85.75Zm0,13.827H98V80.75H85.75Zm0,13.827H98V94.577H85.75ZM70,63.423H82.25V53.1H70ZM70,77.25H82.25V66.923H70Zm0,13.827H82.25V80.75H70ZM70,104.9H82.25V94.577H70ZM54.25,63.423H66.5V53.1H54.25Zm0,13.827H66.5V66.923H54.25Zm0,13.827H66.5V80.75H54.25Zm0,13.827H66.5V94.577H54.25Zm-30-41.481h26.5V53.1H24.25Zm0,13.827h26.5V66.923H24.25Zm26.5,13.827V80.75H24.25V91.077Z" style="fill:url(#linear-gradient)"/></svg>
